<svg width="119" height="29" viewBox="0 0 119 29" fill="none" xmlns="http://www.w3.org/2000/svg">
<path d="M8.3617 0.914894H10.234V2.78724H8.3617V0.914894ZM10.234 0.914894H12.1064V2.78724H10.234V0.914894ZM10.234 2.78724H12.1064V4.65958H10.234V2.78724ZM12.1064 2.78724H13.9787V4.65958H12.1064V2.78724ZM8.3617 2.78724H10.234V4.65958H8.3617V2.78724ZM6.48936 2.78724H8.3617V4.65958H6.48936V2.78724ZM6.48936 4.65958H8.3617V6.53192H6.48936V4.65958ZM4.61702 4.65958H6.48936V6.53192H4.61702V4.65958ZM8.3617 4.65958H10.234V6.53192H8.3617V4.65958ZM10.234 4.65958H12.1064V6.53192H10.234V4.65958ZM12.1064 4.65958H13.9787V6.53192H12.1064V4.65958ZM13.9787 4.65958H15.8511V6.53192H13.9787V4.65958ZM13.9787 6.53192H15.8511V8.40426H13.9787V6.53192ZM15.8511 6.53192H17.7234V8.40426H15.8511V6.53192ZM12.1064 6.53192H13.9787V8.40426H12.1064V6.53192ZM10.234 6.53192H12.1064V8.40426H10.234V6.53192ZM8.3617 6.53192H10.234V8.40426H8.3617V6.53192ZM6.48936 6.53192H8.3617V8.40426H6.48936V6.53192ZM4.61702 6.53192H6.48936V8.40426H4.61702V6.53192ZM2.74468 6.53192H4.61702V8.40426H2.74468V6.53192ZM6.48936 8.40426H8.3617V10.2766H6.48936V8.40426ZM4.61702 8.40426H6.48936V10.2766H4.61702V8.40426ZM2.74468 8.40426H4.61702V10.2766H2.74468V8.40426ZM0.87234 8.40426H2.74468V10.2766H0.87234V8.40426ZM0.87234 10.2766H2.74468V12.1489H0.87234V10.2766ZM0.87234 12.1489H2.74468V14.0213H0.87234V12.1489ZM2.74468 12.1489H4.61702V14.0213H2.74468V12.1489ZM2.74468 10.2766H4.61702V12.1489H2.74468V10.2766ZM4.61702 10.2766H6.48936V12.1489H4.61702V10.2766ZM4.61702 12.1489H6.48936V14.0213H4.61702V12.1489ZM4.61702 14.0213H6.48936V15.8936H4.61702V14.0213ZM2.74468 14.0213H4.61702V15.8936H2.74468V14.0213ZM0.87234 14.0213H2.74468V15.8936H0.87234V14.0213ZM0.87234 15.8936H2.74468V17.766H0.87234V15.8936ZM2.74468 15.8936H4.61702V17.766H2.74468V15.8936ZM4.61702 15.8936H6.48936V17.766H4.61702V15.8936ZM6.48936 15.8936H8.3617V17.766H6.48936V15.8936ZM8.3617 15.8936H10.234V17.766H8.3617V15.8936ZM10.234 15.8936H12.1064V17.766H10.234V15.8936ZM12.1064 15.8936H13.9787V17.766H12.1064V15.8936ZM13.9787 14.0213H15.8511V15.8936H13.9787V14.0213ZM15.8511 14.0213H17.7234V15.8936H15.8511V14.0213ZM15.8511 15.8936H17.7234V17.766H15.8511V15.8936ZM13.9787 15.8936H15.8511V17.766H13.9787V15.8936ZM17.7234 15.8936H19.5957V17.766H17.7234V15.8936ZM17.7234 14.0213H19.5957V15.8936H17.7234V14.0213ZM17.7234 12.1489H19.5957V14.0213H17.7234V12.1489ZM17.7234 10.2766H19.5957V12.1489H17.7234V10.2766ZM17.7234 8.40426H19.5957V10.2766H17.7234V8.40426ZM15.8511 8.40426H17.7234V10.2766H15.8511V8.40426ZM13.9787 8.40426H15.8511V10.2766H13.9787V8.40426ZM12.1064 8.40426H13.9787V10.2766H12.1064V8.40426ZM15.8511 10.2766H17.7234V12.1489H15.8511V10.2766ZM15.8511 12.1489H17.7234V14.0213H15.8511V12.1489ZM13.9787 12.1489H15.8511V14.0213H13.9787V12.1489ZM13.9787 10.2766H15.8511V12.1489H13.9787V10.2766ZM0.87234 17.766H2.74468V19.6383H0.87234V17.766ZM2.74468 17.766H4.61702V19.6383H2.74468V17.766ZM4.61702 17.766H6.48936V19.6383H4.61702V17.766ZM6.48936 17.766H8.3617V19.6383H6.48936V17.766ZM8.3617 17.766H10.234V19.6383H8.3617V17.766ZM10.234 17.766H12.1064V19.6383H10.234V17.766ZM12.1064 17.766H13.9787V19.6383H12.1064V17.766ZM13.9787 17.766H15.8511V19.6383H13.9787V17.766ZM15.8511 17.766H17.7234V19.6383H15.8511V17.766ZM17.7234 17.766H19.5957V19.6383H17.7234V17.766ZM17.7234 19.6383H19.5957V21.5106H17.7234V19.6383ZM15.8511 19.6383H17.7234V21.5106H15.8511V19.6383ZM13.9787 19.6383H15.8511V21.5106H13.9787V19.6383ZM12.1064 19.6383H13.9787V21.5106H12.1064V19.6383ZM10.234 19.6383H12.1064V21.5106H10.234V19.6383ZM8.3617 19.6383H10.234V21.5106H8.3617V19.6383ZM6.48936 19.6383H8.3617V21.5106H6.48936V19.6383ZM2.74468 19.6383H4.61702V21.5106H2.74468V19.6383ZM0.87234 19.6383H2.74468V21.5106H0.87234V19.6383ZM4.61702 19.6383H6.48936V21.5106H4.61702V19.6383ZM4.61702 21.5106H6.48936V23.383H4.61702V21.5106ZM4.61702 23.383H6.48936V25.2553H4.61702V23.383ZM4.61702 25.2553H6.48936V27.1277H4.61702V25.2553ZM4.61702 27.1277H6.48936V29H4.61702V27.1277ZM2.74468 27.1277H4.61702V29H2.74468V27.1277ZM0.87234 27.1277H2.74468V29H0.87234V27.1277ZM0.87234 25.2553H2.74468V27.1277H0.87234V25.2553ZM0.87234 23.383H2.74468V25.2553H0.87234V23.383ZM0.87234 21.5106H2.74468V23.383H0.87234V21.5106ZM2.74468 21.5106H4.61702V23.383H2.74468V21.5106ZM2.74468 23.383H4.61702V25.2553H2.74468V23.383ZM2.74468 25.2553H4.61702V27.1277H2.74468V25.2553ZM13.9787 21.5106H15.8511V23.383H13.9787V21.5106ZM13.9787 23.383H15.8511V25.2553H13.9787V23.383ZM13.9787 25.2553H15.8511V27.1277H13.9787V25.2553ZM13.9787 27.1277H15.8511V29H13.9787V27.1277ZM15.8511 27.1277H17.7234V29H15.8511V27.1277ZM17.7234 27.1277H19.5957V29H17.7234V27.1277ZM17.7234 25.2553H19.5957V27.1277H17.7234V25.2553ZM17.7234 23.383H19.5957V25.2553H17.7234V23.383ZM17.7234 21.5106H19.5957V23.383H17.7234V21.5106ZM15.8511 21.5106H17.7234V23.383H15.8511V21.5106ZM15.8511 23.383H17.7234V25.2553H15.8511V23.383ZM15.8511 25.2553H17.7234V27.1277H15.8511V25.2553ZM38.3137 0.914894H40.186V2.78724H38.3137V0.914894ZM36.4413 0.914894H38.3137V2.78724H36.4413V0.914894ZM34.569 0.914894H36.4413V2.78724H34.569V0.914894ZM30.8243 0.914894H32.6966V2.78724H30.8243V0.914894ZM28.952 0.914894H30.8243V2.78724H28.952V0.914894ZM27.0796 0.914894H28.952V2.78724H27.0796V0.914894ZM32.6966 0.914894H34.569V2.78724H32.6966V0.914894ZM32.6966 2.78724H34.569V4.65958H32.6966V2.78724ZM34.569 2.78724H36.4413V4.65958H34.569V2.78724ZM36.4413 2.78724H38.3137V4.65958H36.4413V2.78724ZM38.3137 2.78724H40.186V4.65958H38.3137V2.78724ZM40.186 2.78724H42.0583V4.65958H40.186V2.78724ZM30.8243 2.78724H32.6966V4.65958H30.8243V2.78724ZM28.952 2.78724H30.8243V4.65958H28.952V2.78724ZM27.0796 2.78724H28.952V4.65958H27.0796V2.78724ZM25.2073 2.78724H27.0796V4.65958H25.2073V2.78724ZM23.3349 4.65958H25.2073V6.53192H23.3349V4.65958ZM25.2073 4.65958H27.0796V6.53192H25.2073V4.65958ZM27.0796 4.65958H28.952V6.53192H27.0796V4.65958ZM28.952 4.65958H30.8243V6.53192H28.952V4.65958ZM30.8243 4.65958H32.6966V6.53192H30.8243V4.65958ZM32.6966 4.65958H34.569V6.53192H32.6966V4.65958ZM34.569 4.65958H36.4413V6.53192H34.569V4.65958ZM36.4413 4.65958H38.3137V6.53192H36.4413V4.65958ZM38.3137 4.65958H40.186V6.53192H38.3137V4.65958ZM40.186 4.65958H42.0583V6.53192H40.186V4.65958ZM42.0583 4.65958H43.9307V6.53192H42.0583V4.65958ZM42.0583 6.53192H43.9307V8.40426H42.0583V6.53192ZM42.0583 8.40426H43.9307V10.2766H42.0583V8.40426ZM40.186 8.40426H42.0583V10.2766H40.186V8.40426ZM40.186 6.53192H42.0583V8.40426H40.186V6.53192ZM38.3137 8.40426H40.186V10.2766H38.3137V8.40426ZM38.3137 6.53192H40.186V8.40426H38.3137V6.53192ZM36.4413 6.53192H38.3137V8.40426H36.4413V6.53192ZM28.952 6.53192H30.8243V8.40426H28.952V6.53192ZM27.0796 6.53192H28.952V8.40426H27.0796V6.53192ZM25.2073 6.53192H27.0796V8.40426H25.2073V6.53192ZM23.3349 6.53192H25.2073V8.40426H23.3349V6.53192ZM23.3349 8.40426H25.2073V10.2766H23.3349V8.40426ZM25.2073 8.40426H27.0796V10.2766H25.2073V8.40426ZM25.2073 10.2766H27.0796V12.1489H25.2073V10.2766ZM27.0796 8.40426H28.952V10.2766H27.0796V8.40426ZM27.0796 10.2766H28.952V12.1489H27.0796V10.2766ZM28.952 10.2766H30.8243V12.1489H28.952V10.2766ZM23.3349 10.2766H25.2073V12.1489H23.3349V10.2766ZM23.3349 12.1489H25.2073V14.0213H23.3349V12.1489ZM25.2073 12.1489H27.0796V14.0213H25.2073V12.1489ZM25.2073 14.0213H27.0796V15.8936H25.2073V14.0213ZM27.0796 14.0213H28.952V15.8936H27.0796V14.0213ZM27.0796 12.1489H28.952V14.0213H27.0796V12.1489ZM28.952 12.1489H30.8243V14.0213H28.952V12.1489ZM28.952 14.0213H30.8243V15.8936H28.952V14.0213ZM27.0796 15.8936H28.952V17.766H27.0796V15.8936ZM28.952 15.8936H30.8243V17.766H28.952V15.8936ZM30.8243 15.8936H32.6966V17.766H30.8243V15.8936ZM32.6966 15.8936H34.569V17.766H32.6966V15.8936ZM34.569 15.8936H36.4413V17.766H34.569V15.8936ZM34.569 14.0213H36.4413V15.8936H34.569V14.0213ZM36.4413 14.0213H38.3137V15.8936H36.4413V14.0213ZM38.3137 14.0213H40.186V15.8936H38.3137V14.0213ZM38.3137 12.1489H40.186V14.0213H38.3137V12.1489ZM36.4413 12.1489H38.3137V14.0213H36.4413V12.1489ZM34.569 12.1489H36.4413V14.0213H34.569V12.1489ZM32.6966 12.1489H34.569V14.0213H32.6966V12.1489ZM32.6966 14.0213H34.569V15.8936H32.6966V14.0213ZM30.8243 14.0213H32.6966V15.8936H30.8243V14.0213ZM30.8243 12.1489H32.6966V14.0213H30.8243V12.1489ZM40.186 14.0213H42.0583V15.8936H40.186V14.0213ZM40.186 15.8936H42.0583V17.766H40.186V15.8936ZM38.3137 15.8936H40.186V17.766H38.3137V15.8936ZM38.3137 17.766H40.186V19.6383H38.3137V17.766ZM36.4413 17.766H38.3137V19.6383H36.4413V17.766ZM36.4413 15.8936H38.3137V17.766H36.4413V15.8936ZM40.186 17.766H42.0583V19.6383H40.186V17.766ZM42.0583 17.766H43.9307V19.6383H42.0583V17.766ZM42.0583 15.8936H43.9307V17.766H42.0583V15.8936ZM42.0583 19.6383H43.9307V21.5106H42.0583V19.6383ZM42.0583 21.5106H43.9307V23.383H42.0583V21.5106ZM42.0583 23.383H43.9307V25.2553H42.0583V23.383ZM40.186 23.383H42.0583V25.2553H40.186V23.383ZM40.186 25.2553H42.0583V27.1277H40.186V25.2553ZM38.3137 25.2553H40.186V27.1277H38.3137V25.2553ZM38.3137 23.383H40.186V25.2553H38.3137V23.383ZM36.4413 23.383H38.3137V25.2553H36.4413V23.383ZM36.4413 21.5106H38.3137V23.383H36.4413V21.5106ZM38.3137 21.5106H40.186V23.383H38.3137V21.5106ZM38.3137 19.6383H40.186V21.5106H38.3137V19.6383ZM40.186 19.6383H42.0583V21.5106H40.186V19.6383ZM40.186 21.5106H42.0583V23.383H40.186V21.5106ZM23.3349 19.6383H25.2073V21.5106H23.3349V19.6383ZM23.3349 21.5106H25.2073V23.383H23.3349V21.5106ZM25.2073 21.5106H27.0796V23.383H25.2073V21.5106ZM25.2073 19.6383H27.0796V21.5106H25.2073V19.6383ZM27.0796 19.6383H28.952V21.5106H27.0796V19.6383ZM27.0796 21.5106H28.952V23.383H27.0796V21.5106ZM23.3349 23.383H25.2073V25.2553H23.3349V23.383ZM25.2073 23.383H27.0796V25.2553H25.2073V23.383ZM28.952 21.5106H30.8243V23.383H28.952V21.5106ZM28.952 23.383H30.8243V25.2553H28.952V23.383ZM27.0796 23.383H28.952V25.2553H27.0796V23.383ZM27.0796 25.2553H28.952V27.1277H27.0796V25.2553ZM25.2073 25.2553H27.0796V27.1277H25.2073V25.2553ZM27.0796 27.1277H28.952V29H27.0796V27.1277ZM28.952 27.1277H30.8243V29H28.952V27.1277ZM30.8243 27.1277H32.6966V29H30.8243V27.1277ZM32.6966 27.1277H34.569V29H32.6966V27.1277ZM34.569 27.1277H36.4413V29H34.569V27.1277ZM36.4413 27.1277H38.3137V29H36.4413V27.1277ZM38.3137 27.1277H40.186V29H38.3137V27.1277ZM36.4413 25.2553H38.3137V27.1277H36.4413V25.2553ZM34.569 25.2553H36.4413V27.1277H34.569V25.2553ZM32.6966 25.2553H34.569V27.1277H32.6966V25.2553ZM32.6966 23.383H34.569V25.2553H32.6966V23.383ZM30.8243 23.383H32.6966V25.2553H30.8243V23.383ZM34.569 23.383H36.4413V25.2553H34.569V23.383ZM30.8243 25.2553H32.6966V27.1277H30.8243V25.2553ZM28.952 25.2553H30.8243V27.1277H28.952V25.2553ZM53.2906 27.1277H55.1629V29H53.2906V27.1277ZM55.1629 27.1277H57.0352V29H55.1629V27.1277ZM57.0352 27.1277H58.9076V29H57.0352V27.1277ZM57.0352 25.2553H58.9076V27.1277H57.0352V25.2553ZM57.0352 23.383H58.9076V25.2553H57.0352V23.383ZM57.0352 21.5106H58.9076V23.383H57.0352V21.5106ZM57.0352 19.6383H58.9076V21.5106H57.0352V19.6383ZM57.0352 17.766H58.9076V19.6383H57.0352V17.766ZM57.0352 15.8936H58.9076V17.766H57.0352V15.8936ZM57.0352 14.0213H58.9076V15.8936H57.0352V14.0213ZM57.0352 12.1489H58.9076V14.0213H57.0352V12.1489ZM57.0352 10.2766H58.9076V12.1489H57.0352V10.2766ZM57.0352 8.40426H58.9076V10.2766H57.0352V8.40426ZM57.0352 6.53192H58.9076V8.40426H57.0352V6.53192ZM55.1629 6.53192H57.0352V8.40426H55.1629V6.53192ZM55.1629 4.65958H57.0352V6.53192H55.1629V4.65958ZM57.0352 4.65958H58.9076V6.53192H57.0352V4.65958ZM53.2906 4.65958H55.1629V6.53192H53.2906V4.65958ZM53.2906 12.1489H55.1629V14.0213H53.2906V12.1489ZM53.2906 14.0213H55.1629V15.8936H53.2906V14.0213ZM53.2906 15.8936H55.1629V17.766H53.2906V15.8936ZM53.2906 17.766H55.1629V19.6383H53.2906V17.766ZM53.2906 19.6383H55.1629V21.5106H53.2906V19.6383ZM55.1629 21.5106H57.0352V23.383H55.1629V21.5106ZM55.1629 23.383H57.0352V25.2553H55.1629V23.383ZM55.1629 25.2553H57.0352V27.1277H55.1629V25.2553ZM53.2906 25.2553H55.1629V27.1277H53.2906V25.2553ZM53.2906 23.383H55.1629V25.2553H53.2906V23.383ZM53.2906 21.5106H55.1629V23.383H53.2906V21.5106ZM55.1629 14.0213H57.0352V15.8936H55.1629V14.0213ZM55.1629 12.1489H57.0352V14.0213H55.1629V12.1489ZM55.1629 10.2766H57.0352V12.1489H55.1629V10.2766ZM55.1629 8.40426H57.0352V10.2766H55.1629V8.40426ZM53.2906 8.40426H55.1629V10.2766H53.2906V8.40426ZM53.2906 10.2766H55.1629V12.1489H53.2906V10.2766ZM55.1629 19.6383H57.0352V21.5106H55.1629V19.6383ZM55.1629 17.766H57.0352V19.6383H55.1629V17.766ZM55.1629 15.8936H57.0352V17.766H55.1629V15.8936ZM53.2906 6.53192H55.1629V8.40426H53.2906V6.53192ZM53.2906 2.78724H55.1629V4.65958H53.2906V2.78724ZM55.1629 2.78724H57.0352V4.65958H55.1629V2.78724ZM57.0352 2.78724H58.9076V4.65958H57.0352V2.78724ZM57.0352 0.914894H58.9076V2.78724H57.0352V0.914894ZM55.1629 0.914894H57.0352V2.78724H55.1629V0.914894ZM53.2906 0.914894H55.1629V2.78724H53.2906V0.914894ZM51.4182 0.914894H53.2906V2.78724H51.4182V0.914894ZM49.5459 0.914894H51.4182V2.78724H49.5459V0.914894ZM49.5459 2.78724H51.4182V4.65958H49.5459V2.78724ZM49.5459 4.65958H51.4182V6.53192H49.5459V4.65958ZM51.4182 2.78724H53.2906V4.65958H51.4182V2.78724ZM51.4182 4.65958H53.2906V6.53192H51.4182V4.65958ZM58.9076 0.914894H60.7799V2.78724H58.9076V0.914894ZM60.7799 0.914894H62.6523V2.78724H60.7799V0.914894ZM60.7799 2.78724H62.6523V4.65958H60.7799V2.78724ZM60.7799 4.65958H62.6523V6.53192H60.7799V4.65958ZM58.9076 4.65958H60.7799V6.53192H58.9076V4.65958ZM58.9076 2.78724H60.7799V4.65958H58.9076V2.78724ZM62.6523 0.914894H64.5246V2.78724H62.6523V0.914894ZM62.6523 2.78724H64.5246V4.65958H62.6523V2.78724ZM62.6523 4.65958H64.5246V6.53192H62.6523V4.65958ZM47.6735 0.914894H49.5459V2.78724H47.6735V0.914894ZM47.6735 2.78724H49.5459V4.65958H47.6735V2.78724ZM47.6735 4.65958H49.5459V6.53192H47.6735V4.65958ZM68.2601 0.914894H70.1325V2.78724H68.2601V0.914894ZM70.1325 0.914894H72.0048V2.78724H70.1325V0.914894ZM72.0048 0.914894H73.8772V2.78724H72.0048V0.914894ZM73.8772 0.914894H75.7495V2.78724H73.8772V0.914894ZM75.7495 0.914894H77.6218V2.78724H75.7495V0.914894ZM77.6218 0.914894H79.4942V2.78724H77.6218V0.914894ZM79.4942 0.914894H81.3665V2.78724H79.4942V0.914894ZM81.3665 0.914894H83.2389V2.78724H81.3665V0.914894ZM81.3665 2.78724H83.2389V4.65958H81.3665V2.78724ZM83.2389 2.78724H85.1112V4.65958H83.2389V2.78724ZM79.4942 2.78724H81.3665V4.65958H79.4942V2.78724ZM77.6218 2.78724H79.4942V4.65958H77.6218V2.78724ZM75.7495 2.78724H77.6218V4.65958H75.7495V2.78724ZM73.8772 2.78724H75.7495V4.65958H73.8772V2.78724ZM72.0048 2.78724H73.8772V4.65958H72.0048V2.78724ZM70.1325 2.78724H72.0048V4.65958H70.1325V2.78724ZM68.2601 2.78724H70.1325V4.65958H68.2601V2.78724ZM68.2601 4.65958H70.1325V6.53192H68.2601V4.65958ZM70.1325 4.65958H72.0048V6.53192H70.1325V4.65958ZM72.0048 4.65958H73.8772V6.53192H72.0048V4.65958ZM73.8772 4.65958H75.7495V6.53192H73.8772V4.65958ZM77.6218 4.65958H79.4942V6.53192H77.6218V4.65958ZM79.4942 4.65958H81.3665V6.53192H79.4942V4.65958ZM81.3665 4.65958H83.2389V6.53192H81.3665V4.65958ZM83.2389 4.65958H85.1112V6.53192H83.2389V4.65958ZM85.1112 4.65958H86.9835V6.53192H85.1112V4.65958ZM75.7495 4.65958H77.6218V6.53192H75.7495V4.65958ZM79.4942 6.53192H81.3665V8.40426H79.4942V6.53192ZM81.3665 6.53192H83.2389V8.40426H81.3665V6.53192ZM85.1112 6.53192H86.9835V8.40426H85.1112V6.53192ZM83.2389 6.53192H85.1112V8.40426H83.2389V6.53192ZM83.2389 8.40426H85.1112V10.2766H83.2389V8.40426ZM83.2389 12.1489H85.1112V14.0213H83.2389V12.1489ZM85.1112 12.1489H86.9835V14.0213H85.1112V12.1489ZM85.1112 14.0213H86.9835V15.8936H85.1112V14.0213ZM85.1112 8.40426H86.9835V10.2766H85.1112V8.40426ZM81.3665 12.1489H83.2389V14.0213H81.3665V12.1489ZM81.3665 8.40426H83.2389V10.2766H81.3665V8.40426ZM79.4942 12.1489H81.3665V14.0213H79.4942V12.1489ZM81.3665 14.0213H83.2389V15.8936H81.3665V14.0213ZM83.2389 14.0213H85.1112V15.8936H83.2389V14.0213ZM83.2389 15.8936H85.1112V17.766H83.2389V15.8936ZM79.4942 17.766H81.3665V19.6383H79.4942V17.766ZM81.3665 17.766H83.2389V19.6383H81.3665V17.766ZM81.3665 15.8936H83.2389V17.766H81.3665V15.8936ZM79.4942 15.8936H81.3665V17.766H79.4942V15.8936ZM79.4942 14.0213H81.3665V15.8936H79.4942V14.0213ZM77.6218 17.766H79.4942V19.6383H77.6218V17.766ZM75.7495 17.766H77.6218V19.6383H75.7495V17.766ZM73.8772 17.766H75.7495V19.6383H73.8772V17.766ZM73.8772 15.8936H75.7495V17.766H73.8772V15.8936ZM75.7495 15.8936H77.6218V17.766H75.7495V15.8936ZM75.7495 14.0213H77.6218V15.8936H75.7495V14.0213ZM77.6218 14.0213H79.4942V15.8936H77.6218V14.0213ZM73.8772 14.0213H75.7495V15.8936H73.8772V14.0213ZM77.6218 15.8936H79.4942V17.766H77.6218V15.8936ZM70.1325 6.53192H72.0048V8.40426H70.1325V6.53192ZM72.0048 6.53192H73.8772V8.40426H72.0048V6.53192ZM72.0048 8.40426H73.8772V10.2766H72.0048V8.40426ZM72.0048 10.2766H73.8772V12.1489H72.0048V10.2766ZM72.0048 12.1489H73.8772V14.0213H72.0048V12.1489ZM70.1325 12.1489H72.0048V14.0213H70.1325V12.1489ZM68.2601 12.1489H70.1325V14.0213H68.2601V12.1489ZM68.2601 10.2766H70.1325V12.1489H68.2601V10.2766ZM68.2601 8.40426H70.1325V10.2766H68.2601V8.40426ZM68.2601 6.53192H70.1325V8.40426H68.2601V6.53192ZM70.1325 10.2766H72.0048V12.1489H70.1325V10.2766ZM70.1325 14.0213H72.0048V15.8936H70.1325V14.0213ZM70.1325 8.40426H72.0048V10.2766H70.1325V8.40426ZM68.2601 14.0213H70.1325V15.8936H68.2601V14.0213ZM68.2601 15.8936H70.1325V17.766H68.2601V15.8936ZM70.1325 15.8936H72.0048V17.766H70.1325V15.8936ZM72.0048 14.0213H73.8772V15.8936H72.0048V14.0213ZM72.0048 15.8936H73.8772V17.766H72.0048V15.8936ZM72.0048 17.766H73.8772V19.6383H72.0048V17.766ZM72.0048 19.6383H73.8772V21.5106H72.0048V19.6383ZM72.0048 21.5106H73.8772V23.383H72.0048V21.5106ZM72.0048 23.383H73.8772V25.2553H72.0048V23.383ZM72.0048 27.1277H73.8772V29H72.0048V27.1277ZM70.1325 27.1277H72.0048V29H70.1325V27.1277ZM68.2601 27.1277H70.1325V29H68.2601V27.1277ZM68.2601 25.2553H70.1325V27.1277H68.2601V25.2553ZM68.2601 23.383H70.1325V25.2553H68.2601V23.383ZM68.2601 21.5106H70.1325V23.383H68.2601V21.5106ZM68.2601 19.6383H70.1325V21.5106H68.2601V19.6383ZM68.2601 17.766H70.1325V19.6383H68.2601V17.766ZM70.1325 17.766H72.0048V19.6383H70.1325V17.766ZM70.1325 19.6383H72.0048V21.5106H70.1325V19.6383ZM70.1325 21.5106H72.0048V23.383H70.1325V21.5106ZM70.1325 23.383H72.0048V25.2553H70.1325V23.383ZM70.1325 25.2553H72.0048V27.1277H70.1325V25.2553ZM72.0048 25.2553H73.8772V27.1277H72.0048V25.2553ZM85.1112 10.2766H86.9835V12.1489H85.1112V10.2766ZM83.2389 10.2766H85.1112V12.1489H83.2389V10.2766ZM81.3665 10.2766H83.2389V12.1489H81.3665V10.2766ZM85.1112 27.1277H86.9835V29H85.1112V27.1277ZM85.1112 25.2553H86.9835V27.1277H85.1112V25.2553ZM85.1112 23.383H86.9835V25.2553H85.1112V23.383ZM83.2389 23.383H85.1112V25.2553H83.2389V23.383ZM81.3665 23.383H83.2389V25.2553H81.3665V23.383ZM81.3665 25.2553H83.2389V27.1277H81.3665V25.2553ZM81.3665 27.1277H83.2389V29H81.3665V27.1277ZM83.2389 27.1277H85.1112V29H83.2389V27.1277ZM83.2389 25.2553H85.1112V27.1277H83.2389V25.2553ZM81.3665 21.5106H83.2389V23.383H81.3665V21.5106ZM81.3665 19.6383H83.2389V21.5106H81.3665V19.6383ZM79.4942 19.6383H81.3665V21.5106H79.4942V19.6383ZM85.1112 21.5106H86.9835V23.383H85.1112V21.5106ZM85.1112 19.6383H86.9835V21.5106H85.1112V19.6383ZM83.2389 21.5106H85.1112V23.383H83.2389V21.5106ZM83.2389 19.6383H85.1112V21.5106H83.2389V19.6383ZM83.2389 17.766H85.1112V19.6383H83.2389V17.766ZM98.2121 0.914894H100.084V2.78724H98.2121V0.914894ZM100.084 0.914894H101.957V2.78724H100.084V0.914894ZM100.084 2.78724H101.957V4.65958H100.084V2.78724ZM101.957 2.78724H103.829V4.65958H101.957V2.78724ZM98.2121 2.78724H100.084V4.65958H98.2121V2.78724ZM96.3398 2.78724H98.2121V4.65958H96.3398V2.78724ZM96.3398 4.65958H98.2121V6.53192H96.3398V4.65958ZM94.4674 4.65958H96.3398V6.53192H94.4674V4.65958ZM98.2121 4.65958H100.084V6.53192H98.2121V4.65958ZM100.084 4.65958H101.957V6.53192H100.084V4.65958ZM101.957 4.65958H103.829V6.53192H101.957V4.65958ZM103.829 4.65958H105.701V6.53192H103.829V4.65958ZM103.829 6.53192H105.701V8.40426H103.829V6.53192ZM105.701 6.53192H107.574V8.40426H105.701V6.53192ZM101.957 6.53192H103.829V8.40426H101.957V6.53192ZM100.084 6.53192H101.957V8.40426H100.084V6.53192ZM98.2121 6.53192H100.084V8.40426H98.2121V6.53192ZM96.3398 6.53192H98.2121V8.40426H96.3398V6.53192ZM94.4674 6.53192H96.3398V8.40426H94.4674V6.53192ZM92.5951 6.53192H94.4674V8.40426H92.5951V6.53192ZM96.3398 8.40426H98.2121V10.2766H96.3398V8.40426ZM94.4674 8.40426H96.3398V10.2766H94.4674V8.40426ZM92.5951 8.40426H94.4674V10.2766H92.5951V8.40426ZM90.7227 8.40426H92.5951V10.2766H90.7227V8.40426ZM90.7227 10.2766H92.5951V12.1489H90.7227V10.2766ZM90.7227 12.1489H92.5951V14.0213H90.7227V12.1489ZM92.5951 12.1489H94.4674V14.0213H92.5951V12.1489ZM92.5951 10.2766H94.4674V12.1489H92.5951V10.2766ZM94.4674 10.2766H96.3398V12.1489H94.4674V10.2766ZM94.4674 12.1489H96.3398V14.0213H94.4674V12.1489ZM94.4674 14.0213H96.3398V15.8936H94.4674V14.0213ZM92.5951 14.0213H94.4674V15.8936H92.5951V14.0213ZM90.7227 14.0213H92.5951V15.8936H90.7227V14.0213ZM90.7227 15.8936H92.5951V17.766H90.7227V15.8936ZM92.5951 15.8936H94.4674V17.766H92.5951V15.8936ZM94.4674 15.8936H96.3398V17.766H94.4674V15.8936ZM96.3398 15.8936H98.2121V17.766H96.3398V15.8936ZM98.2121 15.8936H100.084V17.766H98.2121V15.8936ZM100.084 15.8936H101.957V17.766H100.084V15.8936ZM101.957 15.8936H103.829V17.766H101.957V15.8936ZM103.829 14.0213H105.701V15.8936H103.829V14.0213ZM105.701 14.0213H107.574V15.8936H105.701V14.0213ZM105.701 15.8936H107.574V17.766H105.701V15.8936ZM103.829 15.8936H105.701V17.766H103.829V15.8936ZM107.574 15.8936H109.446V17.766H107.574V15.8936ZM107.574 14.0213H109.446V15.8936H107.574V14.0213ZM107.574 12.1489H109.446V14.0213H107.574V12.1489ZM107.574 10.2766H109.446V12.1489H107.574V10.2766ZM107.574 8.40426H109.446V10.2766H107.574V8.40426ZM105.701 8.40426H107.574V10.2766H105.701V8.40426ZM103.829 8.40426H105.701V10.2766H103.829V8.40426ZM101.957 8.40426H103.829V10.2766H101.957V8.40426ZM105.701 10.2766H107.574V12.1489H105.701V10.2766ZM105.701 12.1489H107.574V14.0213H105.701V12.1489ZM103.829 12.1489H105.701V14.0213H103.829V12.1489ZM103.829 10.2766H105.701V12.1489H103.829V10.2766ZM90.7227 17.766H92.5951V19.6383H90.7227V17.766ZM92.5951 17.766H94.4674V19.6383H92.5951V17.766ZM94.4674 17.766H96.3398V19.6383H94.4674V17.766ZM96.3398 17.766H98.2121V19.6383H96.3398V17.766ZM98.2121 17.766H100.084V19.6383H98.2121V17.766ZM100.084 17.766H101.957V19.6383H100.084V17.766ZM101.957 17.766H103.829V19.6383H101.957V17.766ZM103.829 17.766H105.701V19.6383H103.829V17.766ZM105.701 17.766H107.574V19.6383H105.701V17.766ZM107.574 17.766H109.446V19.6383H107.574V17.766ZM107.574 19.6383H109.446V21.5106H107.574V19.6383ZM105.701 19.6383H107.574V21.5106H105.701V19.6383ZM103.829 19.6383H105.701V21.5106H103.829V19.6383ZM101.957 19.6383H103.829V21.5106H101.957V19.6383ZM100.084 19.6383H101.957V21.5106H100.084V19.6383ZM98.2121 19.6383H100.084V21.5106H98.2121V19.6383ZM96.3398 19.6383H98.2121V21.5106H96.3398V19.6383ZM92.5951 19.6383H94.4674V21.5106H92.5951V19.6383ZM90.7227 19.6383H92.5951V21.5106H90.7227V19.6383ZM94.4674 19.6383H96.3398V21.5106H94.4674V19.6383ZM94.4674 21.5106H96.3398V23.383H94.4674V21.5106ZM94.4674 23.383H96.3398V25.2553H94.4674V23.383ZM94.4674 25.2553H96.3398V27.1277H94.4674V25.2553ZM94.4674 27.1277H96.3398V29H94.4674V27.1277ZM92.5951 27.1277H94.4674V29H92.5951V27.1277ZM90.7227 27.1277H92.5951V29H90.7227V27.1277ZM90.7227 25.2553H92.5951V27.1277H90.7227V25.2553ZM90.7227 23.383H92.5951V25.2553H90.7227V23.383ZM90.7227 21.5106H92.5951V23.383H90.7227V21.5106ZM92.5951 21.5106H94.4674V23.383H92.5951V21.5106ZM92.5951 23.383H94.4674V25.2553H92.5951V23.383ZM92.5951 25.2553H94.4674V27.1277H92.5951V25.2553ZM103.829 21.5106H105.701V23.383H103.829V21.5106ZM103.829 23.383H105.701V25.2553H103.829V23.383ZM103.829 25.2553H105.701V27.1277H103.829V25.2553ZM103.829 27.1277H105.701V29H103.829V27.1277ZM105.701 27.1277H107.574V29H105.701V27.1277ZM107.574 27.1277H109.446V29H107.574V27.1277ZM107.574 25.2553H109.446V27.1277H107.574V25.2553ZM107.574 23.383H109.446V25.2553H107.574V23.383ZM107.574 21.5106H109.446V23.383H107.574V21.5106ZM105.701 21.5106H107.574V23.383H105.701V21.5106ZM105.701 23.383H107.574V25.2553H105.701V23.383ZM105.701 25.2553H107.574V27.1277H105.701V25.2553ZM113.185 23.383H115.058V25.2553H113.185V23.383ZM115.058 23.383H116.93V25.2553H115.058V23.383ZM116.93 23.383H118.802V25.2553H116.93V23.383ZM116.93 25.2553H118.802V27.1277H116.93V25.2553ZM116.93 27.1277H118.802V29H116.93V27.1277ZM115.058 27.1277H116.93V29H115.058V27.1277ZM113.185 27.1277H115.058V29H113.185V27.1277ZM113.185 25.2553H115.058V27.1277H113.185V25.2553ZM115.058 25.2553H116.93V27.1277H115.058V25.2553Z" fill="#3121E1"/>
</svg>
