<svg width="42" height="42" viewBox="0 0 42 42" fill="none" xmlns="http://www.w3.org/2000/svg">
<path d="M38.7334 6.01074H3.26665C1.46475 6.01074 0 7.47738 0 9.27747V32.7216C0 34.5228 1.46541 35.9882 3.26665 35.9882H38.7334C40.5367 35.9882 42 34.5177 42 32.7216V9.27747C42 7.47984 40.5379 6.01074 38.7334 6.01074ZM36.1236 8.8108L21 19.2959L5.87655 8.8108H36.1236ZM3.26665 33.1881C3.00932 33.1881 2.79997 32.9788 2.79997 32.7214V10.0849C3.73956 10.7363 35.3536 32.6543 36.1235 33.1881H3.26665ZM39.2 31.9138L23.4572 20.9994L39.1999 10.085V31.9138H39.2Z" fill="#21243D"/>
</svg>
