<svg width="118" height="29" viewBox="0 0 118 29" fill="none" xmlns="http://www.w3.org/2000/svg">
<path d="M7.48939 -2.29558e-05H9.36173V1.87232H7.48939V-2.29558e-05ZM9.36173 -2.29558e-05H11.2341V1.87232H9.36173V-2.29558e-05ZM9.36173 1.87232H11.2341V3.74466H9.36173V1.87232ZM11.2341 1.87232H13.1064V3.74466H11.2341V1.87232ZM7.48939 1.87232H9.36173V3.74466H7.48939V1.87232ZM5.61705 1.87232H7.48939V3.74466H5.61705V1.87232ZM5.61705 3.74466H7.48939V5.617H5.61705V3.74466ZM3.74471 3.74466H5.61705V5.617H3.74471V3.74466ZM7.48939 3.74466H9.36173V5.617H7.48939V3.74466ZM9.36173 3.74466H11.2341V5.617H9.36173V3.74466ZM11.2341 3.74466H13.1064V5.617H11.2341V3.74466ZM13.1064 3.74466H14.9787V5.617H13.1064V3.74466ZM13.1064 5.617H14.9787V7.48934H13.1064V5.617ZM14.9787 5.617H16.8511V7.48934H14.9787V5.617ZM11.2341 5.617H13.1064V7.48934H11.2341V5.617ZM9.36173 5.617H11.2341V7.48934H9.36173V5.617ZM7.48939 5.617H9.36173V7.48934H7.48939V5.617ZM5.61705 5.617H7.48939V7.48934H5.61705V5.617ZM3.74471 5.617H5.61705V7.48934H3.74471V5.617ZM1.87237 5.617H3.74471V7.48934H1.87237V5.617ZM5.61705 7.48934H7.48939V9.36168H5.61705V7.48934ZM3.74471 7.48934H5.61705V9.36168H3.74471V7.48934ZM1.87237 7.48934H3.74471V9.36168H1.87237V7.48934ZM2.58691e-05 7.48934H1.87237V9.36168H2.58691e-05V7.48934ZM2.58691e-05 9.36168H1.87237V11.234H2.58691e-05V9.36168ZM2.58691e-05 11.234H1.87237V13.1064H2.58691e-05V11.234ZM1.87237 11.234H3.74471V13.1064H1.87237V11.234ZM1.87237 9.36168H3.74471V11.234H1.87237V9.36168ZM3.74471 9.36168H5.61705V11.234H3.74471V9.36168ZM3.74471 11.234H5.61705V13.1064H3.74471V11.234ZM3.74471 13.1064H5.61705V14.9787H3.74471V13.1064ZM1.87237 13.1064H3.74471V14.9787H1.87237V13.1064ZM2.58691e-05 13.1064H1.87237V14.9787H2.58691e-05V13.1064ZM2.58691e-05 14.9787H1.87237V16.851H2.58691e-05V14.9787ZM1.87237 14.9787H3.74471V16.851H1.87237V14.9787ZM3.74471 14.9787H5.61705V16.851H3.74471V14.9787ZM5.61705 14.9787H7.48939V16.851H5.61705V14.9787ZM7.48939 14.9787H9.36173V16.851H7.48939V14.9787ZM9.36173 14.9787H11.2341V16.851H9.36173V14.9787ZM11.2341 14.9787H13.1064V16.851H11.2341V14.9787ZM13.1064 13.1064H14.9787V14.9787H13.1064V13.1064ZM14.9787 13.1064H16.8511V14.9787H14.9787V13.1064ZM14.9787 14.9787H16.8511V16.851H14.9787V14.9787ZM13.1064 14.9787H14.9787V16.851H13.1064V14.9787ZM16.8511 14.9787H18.7234V16.851H16.8511V14.9787ZM16.8511 13.1064H18.7234V14.9787H16.8511V13.1064ZM16.8511 11.234H18.7234V13.1064H16.8511V11.234ZM16.8511 9.36168H18.7234V11.234H16.8511V9.36168ZM16.8511 7.48934H18.7234V9.36168H16.8511V7.48934ZM14.9787 7.48934H16.8511V9.36168H14.9787V7.48934ZM13.1064 7.48934H14.9787V9.36168H13.1064V7.48934ZM11.2341 7.48934H13.1064V9.36168H11.2341V7.48934ZM14.9787 9.36168H16.8511V11.234H14.9787V9.36168ZM14.9787 11.234H16.8511V13.1064H14.9787V11.234ZM13.1064 11.234H14.9787V13.1064H13.1064V11.234ZM13.1064 9.36168H14.9787V11.234H13.1064V9.36168ZM2.58691e-05 16.851H1.87237V18.7234H2.58691e-05V16.851ZM1.87237 16.851H3.74471V18.7234H1.87237V16.851ZM3.74471 16.851H5.61705V18.7234H3.74471V16.851ZM5.61705 16.851H7.48939V18.7234H5.61705V16.851ZM7.48939 16.851H9.36173V18.7234H7.48939V16.851ZM9.36173 16.851H11.2341V18.7234H9.36173V16.851ZM11.2341 16.851H13.1064V18.7234H11.2341V16.851ZM13.1064 16.851H14.9787V18.7234H13.1064V16.851ZM14.9787 16.851H16.8511V18.7234H14.9787V16.851ZM16.8511 16.851H18.7234V18.7234H16.8511V16.851ZM16.8511 18.7234H18.7234V20.5957H16.8511V18.7234ZM14.9787 18.7234H16.8511V20.5957H14.9787V18.7234ZM13.1064 18.7234H14.9787V20.5957H13.1064V18.7234ZM11.2341 18.7234H13.1064V20.5957H11.2341V18.7234ZM9.36173 18.7234H11.2341V20.5957H9.36173V18.7234ZM7.48939 18.7234H9.36173V20.5957H7.48939V18.7234ZM5.61705 18.7234H7.48939V20.5957H5.61705V18.7234ZM1.87237 18.7234H3.74471V20.5957H1.87237V18.7234ZM2.58691e-05 18.7234H1.87237V20.5957H2.58691e-05V18.7234ZM3.74471 18.7234H5.61705V20.5957H3.74471V18.7234ZM3.74471 20.5957H5.61705V22.4681H3.74471V20.5957ZM3.74471 22.4681H5.61705V24.3404H3.74471V22.4681ZM3.74471 24.3404H5.61705V26.2127H3.74471V24.3404ZM3.74471 26.2127H5.61705V28.0851H3.74471V26.2127ZM1.87237 26.2127H3.74471V28.0851H1.87237V26.2127ZM2.58691e-05 26.2127H1.87237V28.0851H2.58691e-05V26.2127ZM2.58691e-05 24.3404H1.87237V26.2127H2.58691e-05V24.3404ZM2.58691e-05 22.4681H1.87237V24.3404H2.58691e-05V22.4681ZM2.58691e-05 20.5957H1.87237V22.4681H2.58691e-05V20.5957ZM1.87237 20.5957H3.74471V22.4681H1.87237V20.5957ZM1.87237 22.4681H3.74471V24.3404H1.87237V22.4681ZM1.87237 24.3404H3.74471V26.2127H1.87237V24.3404ZM13.1064 20.5957H14.9787V22.4681H13.1064V20.5957ZM13.1064 22.4681H14.9787V24.3404H13.1064V22.4681ZM13.1064 24.3404H14.9787V26.2127H13.1064V24.3404ZM13.1064 26.2127H14.9787V28.0851H13.1064V26.2127ZM14.9787 26.2127H16.8511V28.0851H14.9787V26.2127ZM16.8511 26.2127H18.7234V28.0851H16.8511V26.2127ZM16.8511 24.3404H18.7234V26.2127H16.8511V24.3404ZM16.8511 22.4681H18.7234V24.3404H16.8511V22.4681ZM16.8511 20.5957H18.7234V22.4681H16.8511V20.5957ZM14.9787 20.5957H16.8511V22.4681H14.9787V20.5957ZM14.9787 22.4681H16.8511V24.3404H14.9787V22.4681ZM14.9787 24.3404H16.8511V26.2127H14.9787V24.3404ZM37.4413 -2.29558e-05H39.3137V1.87232H37.4413V-2.29558e-05ZM35.569 -2.29558e-05H37.4413V1.87232H35.569V-2.29558e-05ZM33.6967 -2.29558e-05H35.569V1.87232H33.6967V-2.29558e-05ZM29.952 -2.29558e-05H31.8243V1.87232H29.952V-2.29558e-05ZM28.0796 -2.29558e-05H29.952V1.87232H28.0796V-2.29558e-05ZM26.2073 -2.29558e-05H28.0796V1.87232H26.2073V-2.29558e-05ZM31.8243 -2.29558e-05H33.6967V1.87232H31.8243V-2.29558e-05ZM31.8243 1.87232H33.6967V3.74466H31.8243V1.87232ZM33.6967 1.87232H35.569V3.74466H33.6967V1.87232ZM35.569 1.87232H37.4413V3.74466H35.569V1.87232ZM37.4413 1.87232H39.3137V3.74466H37.4413V1.87232ZM39.3137 1.87232H41.186V3.74466H39.3137V1.87232ZM29.952 1.87232H31.8243V3.74466H29.952V1.87232ZM28.0796 1.87232H29.952V3.74466H28.0796V1.87232ZM26.2073 1.87232H28.0796V3.74466H26.2073V1.87232ZM24.335 1.87232H26.2073V3.74466H24.335V1.87232ZM22.4626 3.74466H24.335V5.617H22.4626V3.74466ZM24.335 3.74466H26.2073V5.617H24.335V3.74466ZM26.2073 3.74466H28.0796V5.617H26.2073V3.74466ZM28.0796 3.74466H29.952V5.617H28.0796V3.74466ZM29.952 3.74466H31.8243V5.617H29.952V3.74466ZM31.8243 3.74466H33.6967V5.617H31.8243V3.74466ZM33.6967 3.74466H35.569V5.617H33.6967V3.74466ZM35.569 3.74466H37.4413V5.617H35.569V3.74466ZM37.4413 3.74466H39.3137V5.617H37.4413V3.74466ZM39.3137 3.74466H41.186V5.617H39.3137V3.74466ZM41.186 3.74466H43.0584V5.617H41.186V3.74466ZM41.186 5.617H43.0584V7.48934H41.186V5.617ZM41.186 7.48934H43.0584V9.36168H41.186V7.48934ZM39.3137 7.48934H41.186V9.36168H39.3137V7.48934ZM39.3137 5.617H41.186V7.48934H39.3137V5.617ZM37.4413 7.48934H39.3137V9.36168H37.4413V7.48934ZM37.4413 5.617H39.3137V7.48934H37.4413V5.617ZM35.569 5.617H37.4413V7.48934H35.569V5.617ZM28.0796 5.617H29.952V7.48934H28.0796V5.617ZM26.2073 5.617H28.0796V7.48934H26.2073V5.617ZM24.335 5.617H26.2073V7.48934H24.335V5.617ZM22.4626 5.617H24.335V7.48934H22.4626V5.617ZM22.4626 7.48934H24.335V9.36168H22.4626V7.48934ZM24.335 7.48934H26.2073V9.36168H24.335V7.48934ZM24.335 9.36168H26.2073V11.234H24.335V9.36168ZM26.2073 7.48934H28.0796V9.36168H26.2073V7.48934ZM26.2073 9.36168H28.0796V11.234H26.2073V9.36168ZM28.0796 9.36168H29.952V11.234H28.0796V9.36168ZM22.4626 9.36168H24.335V11.234H22.4626V9.36168ZM22.4626 11.234H24.335V13.1064H22.4626V11.234ZM24.335 11.234H26.2073V13.1064H24.335V11.234ZM24.335 13.1064H26.2073V14.9787H24.335V13.1064ZM26.2073 13.1064H28.0796V14.9787H26.2073V13.1064ZM26.2073 11.234H28.0796V13.1064H26.2073V11.234ZM28.0796 11.234H29.952V13.1064H28.0796V11.234ZM28.0796 13.1064H29.952V14.9787H28.0796V13.1064ZM26.2073 14.9787H28.0796V16.851H26.2073V14.9787ZM28.0796 14.9787H29.952V16.851H28.0796V14.9787ZM29.952 14.9787H31.8243V16.851H29.952V14.9787ZM31.8243 14.9787H33.6967V16.851H31.8243V14.9787ZM33.6967 14.9787H35.569V16.851H33.6967V14.9787ZM33.6967 13.1064H35.569V14.9787H33.6967V13.1064ZM35.569 13.1064H37.4413V14.9787H35.569V13.1064ZM37.4413 13.1064H39.3137V14.9787H37.4413V13.1064ZM37.4413 11.234H39.3137V13.1064H37.4413V11.234ZM35.569 11.234H37.4413V13.1064H35.569V11.234ZM33.6967 11.234H35.569V13.1064H33.6967V11.234ZM31.8243 11.234H33.6967V13.1064H31.8243V11.234ZM31.8243 13.1064H33.6967V14.9787H31.8243V13.1064ZM29.952 13.1064H31.8243V14.9787H29.952V13.1064ZM29.952 11.234H31.8243V13.1064H29.952V11.234ZM39.3137 13.1064H41.186V14.9787H39.3137V13.1064ZM39.3137 14.9787H41.186V16.851H39.3137V14.9787ZM37.4413 14.9787H39.3137V16.851H37.4413V14.9787ZM37.4413 16.851H39.3137V18.7234H37.4413V16.851ZM35.569 16.851H37.4413V18.7234H35.569V16.851ZM35.569 14.9787H37.4413V16.851H35.569V14.9787ZM39.3137 16.851H41.186V18.7234H39.3137V16.851ZM41.186 16.851H43.0584V18.7234H41.186V16.851ZM41.186 14.9787H43.0584V16.851H41.186V14.9787ZM41.186 18.7234H43.0584V20.5957H41.186V18.7234ZM41.186 20.5957H43.0584V22.4681H41.186V20.5957ZM41.186 22.4681H43.0584V24.3404H41.186V22.4681ZM39.3137 22.4681H41.186V24.3404H39.3137V22.4681ZM39.3137 24.3404H41.186V26.2127H39.3137V24.3404ZM37.4413 24.3404H39.3137V26.2127H37.4413V24.3404ZM37.4413 22.4681H39.3137V24.3404H37.4413V22.4681ZM35.569 22.4681H37.4413V24.3404H35.569V22.4681ZM35.569 20.5957H37.4413V22.4681H35.569V20.5957ZM37.4413 20.5957H39.3137V22.4681H37.4413V20.5957ZM37.4413 18.7234H39.3137V20.5957H37.4413V18.7234ZM39.3137 18.7234H41.186V20.5957H39.3137V18.7234ZM39.3137 20.5957H41.186V22.4681H39.3137V20.5957ZM22.4626 18.7234H24.335V20.5957H22.4626V18.7234ZM22.4626 20.5957H24.335V22.4681H22.4626V20.5957ZM24.335 20.5957H26.2073V22.4681H24.335V20.5957ZM24.335 18.7234H26.2073V20.5957H24.335V18.7234ZM26.2073 18.7234H28.0796V20.5957H26.2073V18.7234ZM26.2073 20.5957H28.0796V22.4681H26.2073V20.5957ZM22.4626 22.4681H24.335V24.3404H22.4626V22.4681ZM24.335 22.4681H26.2073V24.3404H24.335V22.4681ZM28.0796 20.5957H29.952V22.4681H28.0796V20.5957ZM28.0796 22.4681H29.952V24.3404H28.0796V22.4681ZM26.2073 22.4681H28.0796V24.3404H26.2073V22.4681ZM26.2073 24.3404H28.0796V26.2127H26.2073V24.3404ZM24.335 24.3404H26.2073V26.2127H24.335V24.3404ZM26.2073 26.2127H28.0796V28.0851H26.2073V26.2127ZM28.0796 26.2127H29.952V28.0851H28.0796V26.2127ZM29.952 26.2127H31.8243V28.0851H29.952V26.2127ZM31.8243 26.2127H33.6967V28.0851H31.8243V26.2127ZM33.6967 26.2127H35.569V28.0851H33.6967V26.2127ZM35.569 26.2127H37.4413V28.0851H35.569V26.2127ZM37.4413 26.2127H39.3137V28.0851H37.4413V26.2127ZM35.569 24.3404H37.4413V26.2127H35.569V24.3404ZM33.6967 24.3404H35.569V26.2127H33.6967V24.3404ZM31.8243 24.3404H33.6967V26.2127H31.8243V24.3404ZM31.8243 22.4681H33.6967V24.3404H31.8243V22.4681ZM29.952 22.4681H31.8243V24.3404H29.952V22.4681ZM33.6967 22.4681H35.569V24.3404H33.6967V22.4681ZM29.952 24.3404H31.8243V26.2127H29.952V24.3404ZM28.0796 24.3404H29.952V26.2127H28.0796V24.3404ZM52.4182 26.2127H54.2906V28.0851H52.4182V26.2127ZM54.2906 26.2127H56.1629V28.0851H54.2906V26.2127ZM56.1629 26.2127H58.0353V28.0851H56.1629V26.2127ZM56.1629 24.3404H58.0353V26.2127H56.1629V24.3404ZM56.1629 22.4681H58.0353V24.3404H56.1629V22.4681ZM56.1629 20.5957H58.0353V22.4681H56.1629V20.5957ZM56.1629 18.7234H58.0353V20.5957H56.1629V18.7234ZM56.1629 16.851H58.0353V18.7234H56.1629V16.851ZM56.1629 14.9787H58.0353V16.851H56.1629V14.9787ZM56.1629 13.1064H58.0353V14.9787H56.1629V13.1064ZM56.1629 11.234H58.0353V13.1064H56.1629V11.234ZM56.1629 9.36168H58.0353V11.234H56.1629V9.36168ZM56.1629 7.48934H58.0353V9.36168H56.1629V7.48934ZM56.1629 5.617H58.0353V7.48934H56.1629V5.617ZM54.2906 5.617H56.1629V7.48934H54.2906V5.617ZM54.2906 3.74466H56.1629V5.617H54.2906V3.74466ZM56.1629 3.74466H58.0353V5.617H56.1629V3.74466ZM52.4182 3.74466H54.2906V5.617H52.4182V3.74466ZM52.4182 11.234H54.2906V13.1064H52.4182V11.234ZM52.4182 13.1064H54.2906V14.9787H52.4182V13.1064ZM52.4182 14.9787H54.2906V16.851H52.4182V14.9787ZM52.4182 16.851H54.2906V18.7234H52.4182V16.851ZM52.4182 18.7234H54.2906V20.5957H52.4182V18.7234ZM54.2906 20.5957H56.1629V22.4681H54.2906V20.5957ZM54.2906 22.4681H56.1629V24.3404H54.2906V22.4681ZM54.2906 24.3404H56.1629V26.2127H54.2906V24.3404ZM52.4182 24.3404H54.2906V26.2127H52.4182V24.3404ZM52.4182 22.4681H54.2906V24.3404H52.4182V22.4681ZM52.4182 20.5957H54.2906V22.4681H52.4182V20.5957ZM54.2906 13.1064H56.1629V14.9787H54.2906V13.1064ZM54.2906 11.234H56.1629V13.1064H54.2906V11.234ZM54.2906 9.36168H56.1629V11.234H54.2906V9.36168ZM54.2906 7.48934H56.1629V9.36168H54.2906V7.48934ZM52.4182 7.48934H54.2906V9.36168H52.4182V7.48934ZM52.4182 9.36168H54.2906V11.234H52.4182V9.36168ZM54.2906 18.7234H56.1629V20.5957H54.2906V18.7234ZM54.2906 16.851H56.1629V18.7234H54.2906V16.851ZM54.2906 14.9787H56.1629V16.851H54.2906V14.9787ZM52.4182 5.617H54.2906V7.48934H52.4182V5.617ZM52.4182 1.87232H54.2906V3.74466H52.4182V1.87232ZM54.2906 1.87232H56.1629V3.74466H54.2906V1.87232ZM56.1629 1.87232H58.0353V3.74466H56.1629V1.87232ZM56.1629 -2.29558e-05H58.0353V1.87232H56.1629V-2.29558e-05ZM54.2906 -2.29558e-05H56.1629V1.87232H54.2906V-2.29558e-05ZM52.4182 -2.29558e-05H54.2906V1.87232H52.4182V-2.29558e-05ZM50.5459 -2.29558e-05H52.4182V1.87232H50.5459V-2.29558e-05ZM48.6736 -2.29558e-05H50.5459V1.87232H48.6736V-2.29558e-05ZM48.6736 1.87232H50.5459V3.74466H48.6736V1.87232ZM48.6736 3.74466H50.5459V5.617H48.6736V3.74466ZM50.5459 1.87232H52.4182V3.74466H50.5459V1.87232ZM50.5459 3.74466H52.4182V5.617H50.5459V3.74466ZM58.0353 -2.29558e-05H59.9076V1.87232H58.0353V-2.29558e-05ZM59.9076 -2.29558e-05H61.7799V1.87232H59.9076V-2.29558e-05ZM59.9076 1.87232H61.7799V3.74466H59.9076V1.87232ZM59.9076 3.74466H61.7799V5.617H59.9076V3.74466ZM58.0353 3.74466H59.9076V5.617H58.0353V3.74466ZM58.0353 1.87232H59.9076V3.74466H58.0353V1.87232ZM61.7799 -2.29558e-05H63.6523V1.87232H61.7799V-2.29558e-05ZM61.7799 1.87232H63.6523V3.74466H61.7799V1.87232ZM61.7799 3.74466H63.6523V5.617H61.7799V3.74466ZM46.8012 -2.29558e-05H48.6736V1.87232H46.8012V-2.29558e-05ZM46.8012 1.87232H48.6736V3.74466H46.8012V1.87232ZM46.8012 3.74466H48.6736V5.617H46.8012V3.74466ZM67.3878 -2.29558e-05H69.2602V1.87232H67.3878V-2.29558e-05ZM69.2602 -2.29558e-05H71.1325V1.87232H69.2602V-2.29558e-05ZM71.1325 -2.29558e-05H73.0048V1.87232H71.1325V-2.29558e-05ZM73.0048 -2.29558e-05H74.8772V1.87232H73.0048V-2.29558e-05ZM74.8772 -2.29558e-05H76.7495V1.87232H74.8772V-2.29558e-05ZM76.7495 -2.29558e-05H78.6219V1.87232H76.7495V-2.29558e-05ZM78.6219 -2.29558e-05H80.4942V1.87232H78.6219V-2.29558e-05ZM80.4942 -2.29558e-05H82.3665V1.87232H80.4942V-2.29558e-05ZM80.4942 1.87232H82.3665V3.74466H80.4942V1.87232ZM82.3665 1.87232H84.2389V3.74466H82.3665V1.87232ZM78.6219 1.87232H80.4942V3.74466H78.6219V1.87232ZM76.7495 1.87232H78.6219V3.74466H76.7495V1.87232ZM74.8772 1.87232H76.7495V3.74466H74.8772V1.87232ZM73.0048 1.87232H74.8772V3.74466H73.0048V1.87232ZM71.1325 1.87232H73.0048V3.74466H71.1325V1.87232ZM69.2602 1.87232H71.1325V3.74466H69.2602V1.87232ZM67.3878 1.87232H69.2602V3.74466H67.3878V1.87232ZM67.3878 3.74466H69.2602V5.617H67.3878V3.74466ZM69.2602 3.74466H71.1325V5.617H69.2602V3.74466ZM71.1325 3.74466H73.0048V5.617H71.1325V3.74466ZM73.0048 3.74466H74.8772V5.617H73.0048V3.74466ZM76.7495 3.74466H78.6219V5.617H76.7495V3.74466ZM78.6219 3.74466H80.4942V5.617H78.6219V3.74466ZM80.4942 3.74466H82.3665V5.617H80.4942V3.74466ZM82.3665 3.74466H84.2389V5.617H82.3665V3.74466ZM84.2389 3.74466H86.1112V5.617H84.2389V3.74466ZM74.8772 3.74466H76.7495V5.617H74.8772V3.74466ZM78.6219 5.617H80.4942V7.48934H78.6219V5.617ZM80.4942 5.617H82.3665V7.48934H80.4942V5.617ZM84.2389 5.617H86.1112V7.48934H84.2389V5.617ZM82.3665 5.617H84.2389V7.48934H82.3665V5.617ZM82.3665 7.48934H84.2389V9.36168H82.3665V7.48934ZM82.3665 11.234H84.2389V13.1064H82.3665V11.234ZM84.2389 11.234H86.1112V13.1064H84.2389V11.234ZM84.2389 13.1064H86.1112V14.9787H84.2389V13.1064ZM84.2389 7.48934H86.1112V9.36168H84.2389V7.48934ZM80.4942 11.234H82.3665V13.1064H80.4942V11.234ZM80.4942 7.48934H82.3665V9.36168H80.4942V7.48934ZM78.6219 11.234H80.4942V13.1064H78.6219V11.234ZM80.4942 13.1064H82.3665V14.9787H80.4942V13.1064ZM82.3665 13.1064H84.2389V14.9787H82.3665V13.1064ZM82.3665 14.9787H84.2389V16.851H82.3665V14.9787ZM78.6219 16.851H80.4942V18.7234H78.6219V16.851ZM80.4942 16.851H82.3665V18.7234H80.4942V16.851ZM80.4942 14.9787H82.3665V16.851H80.4942V14.9787ZM78.6219 14.9787H80.4942V16.851H78.6219V14.9787ZM78.6219 13.1064H80.4942V14.9787H78.6219V13.1064ZM76.7495 16.851H78.6219V18.7234H76.7495V16.851ZM74.8772 16.851H76.7495V18.7234H74.8772V16.851ZM73.0048 16.851H74.8772V18.7234H73.0048V16.851ZM73.0048 14.9787H74.8772V16.851H73.0048V14.9787ZM74.8772 14.9787H76.7495V16.851H74.8772V14.9787ZM74.8772 13.1064H76.7495V14.9787H74.8772V13.1064ZM76.7495 13.1064H78.6219V14.9787H76.7495V13.1064ZM73.0048 13.1064H74.8772V14.9787H73.0048V13.1064ZM76.7495 14.9787H78.6219V16.851H76.7495V14.9787ZM69.2602 5.617H71.1325V7.48934H69.2602V5.617ZM71.1325 5.617H73.0048V7.48934H71.1325V5.617ZM71.1325 7.48934H73.0048V9.36168H71.1325V7.48934ZM71.1325 9.36168H73.0048V11.234H71.1325V9.36168ZM71.1325 11.234H73.0048V13.1064H71.1325V11.234ZM69.2602 11.234H71.1325V13.1064H69.2602V11.234ZM67.3878 11.234H69.2602V13.1064H67.3878V11.234ZM67.3878 9.36168H69.2602V11.234H67.3878V9.36168ZM67.3878 7.48934H69.2602V9.36168H67.3878V7.48934ZM67.3878 5.617H69.2602V7.48934H67.3878V5.617ZM69.2602 9.36168H71.1325V11.234H69.2602V9.36168ZM69.2602 13.1064H71.1325V14.9787H69.2602V13.1064ZM69.2602 7.48934H71.1325V9.36168H69.2602V7.48934ZM67.3878 13.1064H69.2602V14.9787H67.3878V13.1064ZM67.3878 14.9787H69.2602V16.851H67.3878V14.9787ZM69.2602 14.9787H71.1325V16.851H69.2602V14.9787ZM71.1325 13.1064H73.0048V14.9787H71.1325V13.1064ZM71.1325 14.9787H73.0048V16.851H71.1325V14.9787ZM71.1325 16.851H73.0048V18.7234H71.1325V16.851ZM71.1325 18.7234H73.0048V20.5957H71.1325V18.7234ZM71.1325 20.5957H73.0048V22.4681H71.1325V20.5957ZM71.1325 22.4681H73.0048V24.3404H71.1325V22.4681ZM71.1325 26.2127H73.0048V28.0851H71.1325V26.2127ZM69.2602 26.2127H71.1325V28.0851H69.2602V26.2127ZM67.3878 26.2127H69.2602V28.0851H67.3878V26.2127ZM67.3878 24.3404H69.2602V26.2127H67.3878V24.3404ZM67.3878 22.4681H69.2602V24.3404H67.3878V22.4681ZM67.3878 20.5957H69.2602V22.4681H67.3878V20.5957ZM67.3878 18.7234H69.2602V20.5957H67.3878V18.7234ZM67.3878 16.851H69.2602V18.7234H67.3878V16.851ZM69.2602 16.851H71.1325V18.7234H69.2602V16.851ZM69.2602 18.7234H71.1325V20.5957H69.2602V18.7234ZM69.2602 20.5957H71.1325V22.4681H69.2602V20.5957ZM69.2602 22.4681H71.1325V24.3404H69.2602V22.4681ZM69.2602 24.3404H71.1325V26.2127H69.2602V24.3404ZM71.1325 24.3404H73.0048V26.2127H71.1325V24.3404ZM84.2389 9.36168H86.1112V11.234H84.2389V9.36168ZM82.3665 9.36168H84.2389V11.234H82.3665V9.36168ZM80.4942 9.36168H82.3665V11.234H80.4942V9.36168ZM84.2389 26.2127H86.1112V28.0851H84.2389V26.2127ZM84.2389 24.3404H86.1112V26.2127H84.2389V24.3404ZM84.2389 22.4681H86.1112V24.3404H84.2389V22.4681ZM82.3665 22.4681H84.2389V24.3404H82.3665V22.4681ZM80.4942 22.4681H82.3665V24.3404H80.4942V22.4681ZM80.4942 24.3404H82.3665V26.2127H80.4942V24.3404ZM80.4942 26.2127H82.3665V28.0851H80.4942V26.2127ZM82.3665 26.2127H84.2389V28.0851H82.3665V26.2127ZM82.3665 24.3404H84.2389V26.2127H82.3665V24.3404ZM80.4942 20.5957H82.3665V22.4681H80.4942V20.5957ZM80.4942 18.7234H82.3665V20.5957H80.4942V18.7234ZM78.6219 18.7234H80.4942V20.5957H78.6219V18.7234ZM84.2389 20.5957H86.1112V22.4681H84.2389V20.5957ZM84.2389 18.7234H86.1112V20.5957H84.2389V18.7234ZM82.3665 20.5957H84.2389V22.4681H82.3665V20.5957ZM82.3665 18.7234H84.2389V20.5957H82.3665V18.7234ZM82.3665 16.851H84.2389V18.7234H82.3665V16.851ZM97.3398 -2.29558e-05H99.2121V1.87232H97.3398V-2.29558e-05ZM99.2121 -2.29558e-05H101.084V1.87232H99.2121V-2.29558e-05ZM99.2121 1.87232H101.084V3.74466H99.2121V1.87232ZM101.084 1.87232H102.957V3.74466H101.084V1.87232ZM97.3398 1.87232H99.2121V3.74466H97.3398V1.87232ZM95.4674 1.87232H97.3398V3.74466H95.4674V1.87232ZM95.4674 3.74466H97.3398V5.617H95.4674V3.74466ZM93.5951 3.74466H95.4674V5.617H93.5951V3.74466ZM97.3398 3.74466H99.2121V5.617H97.3398V3.74466ZM99.2121 3.74466H101.084V5.617H99.2121V3.74466ZM101.084 3.74466H102.957V5.617H101.084V3.74466ZM102.957 3.74466H104.829V5.617H102.957V3.74466ZM102.957 5.617H104.829V7.48934H102.957V5.617ZM104.829 5.617H106.701V7.48934H104.829V5.617ZM101.084 5.617H102.957V7.48934H101.084V5.617ZM99.2121 5.617H101.084V7.48934H99.2121V5.617ZM97.3398 5.617H99.2121V7.48934H97.3398V5.617ZM95.4674 5.617H97.3398V7.48934H95.4674V5.617ZM93.5951 5.617H95.4674V7.48934H93.5951V5.617ZM91.7228 5.617H93.5951V7.48934H91.7228V5.617ZM95.4674 7.48934H97.3398V9.36168H95.4674V7.48934ZM93.5951 7.48934H95.4674V9.36168H93.5951V7.48934ZM91.7228 7.48934H93.5951V9.36168H91.7228V7.48934ZM89.8504 7.48934H91.7228V9.36168H89.8504V7.48934ZM89.8504 9.36168H91.7228V11.234H89.8504V9.36168ZM89.8504 11.234H91.7228V13.1064H89.8504V11.234ZM91.7228 11.234H93.5951V13.1064H91.7228V11.234ZM91.7228 9.36168H93.5951V11.234H91.7228V9.36168ZM93.5951 9.36168H95.4674V11.234H93.5951V9.36168ZM93.5951 11.234H95.4674V13.1064H93.5951V11.234ZM93.5951 13.1064H95.4674V14.9787H93.5951V13.1064ZM91.7228 13.1064H93.5951V14.9787H91.7228V13.1064ZM89.8504 13.1064H91.7228V14.9787H89.8504V13.1064ZM89.8504 14.9787H91.7228V16.851H89.8504V14.9787ZM91.7228 14.9787H93.5951V16.851H91.7228V14.9787ZM93.5951 14.9787H95.4674V16.851H93.5951V14.9787ZM95.4674 14.9787H97.3398V16.851H95.4674V14.9787ZM97.3398 14.9787H99.2121V16.851H97.3398V14.9787ZM99.2121 14.9787H101.084V16.851H99.2121V14.9787ZM101.084 14.9787H102.957V16.851H101.084V14.9787ZM102.957 13.1064H104.829V14.9787H102.957V13.1064ZM104.829 13.1064H106.701V14.9787H104.829V13.1064ZM104.829 14.9787H106.701V16.851H104.829V14.9787ZM102.957 14.9787H104.829V16.851H102.957V14.9787ZM106.701 14.9787H108.574V16.851H106.701V14.9787ZM106.701 13.1064H108.574V14.9787H106.701V13.1064ZM106.701 11.234H108.574V13.1064H106.701V11.234ZM106.701 9.36168H108.574V11.234H106.701V9.36168ZM106.701 7.48934H108.574V9.36168H106.701V7.48934ZM104.829 7.48934H106.701V9.36168H104.829V7.48934ZM102.957 7.48934H104.829V9.36168H102.957V7.48934ZM101.084 7.48934H102.957V9.36168H101.084V7.48934ZM104.829 9.36168H106.701V11.234H104.829V9.36168ZM104.829 11.234H106.701V13.1064H104.829V11.234ZM102.957 11.234H104.829V13.1064H102.957V11.234ZM102.957 9.36168H104.829V11.234H102.957V9.36168ZM89.8504 16.851H91.7228V18.7234H89.8504V16.851ZM91.7228 16.851H93.5951V18.7234H91.7228V16.851ZM93.5951 16.851H95.4674V18.7234H93.5951V16.851ZM95.4674 16.851H97.3398V18.7234H95.4674V16.851ZM97.3398 16.851H99.2121V18.7234H97.3398V16.851ZM99.2121 16.851H101.084V18.7234H99.2121V16.851ZM101.084 16.851H102.957V18.7234H101.084V16.851ZM102.957 16.851H104.829V18.7234H102.957V16.851ZM104.829 16.851H106.701V18.7234H104.829V16.851ZM106.701 16.851H108.574V18.7234H106.701V16.851ZM106.701 18.7234H108.574V20.5957H106.701V18.7234ZM104.829 18.7234H106.701V20.5957H104.829V18.7234ZM102.957 18.7234H104.829V20.5957H102.957V18.7234ZM101.084 18.7234H102.957V20.5957H101.084V18.7234ZM99.2121 18.7234H101.084V20.5957H99.2121V18.7234ZM97.3398 18.7234H99.2121V20.5957H97.3398V18.7234ZM95.4674 18.7234H97.3398V20.5957H95.4674V18.7234ZM91.7228 18.7234H93.5951V20.5957H91.7228V18.7234ZM89.8504 18.7234H91.7228V20.5957H89.8504V18.7234ZM93.5951 18.7234H95.4674V20.5957H93.5951V18.7234ZM93.5951 20.5957H95.4674V22.4681H93.5951V20.5957ZM93.5951 22.4681H95.4674V24.3404H93.5951V22.4681ZM93.5951 24.3404H95.4674V26.2127H93.5951V24.3404ZM93.5951 26.2127H95.4674V28.0851H93.5951V26.2127ZM91.7228 26.2127H93.5951V28.0851H91.7228V26.2127ZM89.8504 26.2127H91.7228V28.0851H89.8504V26.2127ZM89.8504 24.3404H91.7228V26.2127H89.8504V24.3404ZM89.8504 22.4681H91.7228V24.3404H89.8504V22.4681ZM89.8504 20.5957H91.7228V22.4681H89.8504V20.5957ZM91.7228 20.5957H93.5951V22.4681H91.7228V20.5957ZM91.7228 22.4681H93.5951V24.3404H91.7228V22.4681ZM91.7228 24.3404H93.5951V26.2127H91.7228V24.3404ZM102.957 20.5957H104.829V22.4681H102.957V20.5957ZM102.957 22.4681H104.829V24.3404H102.957V22.4681ZM102.957 24.3404H104.829V26.2127H102.957V24.3404ZM102.957 26.2127H104.829V28.0851H102.957V26.2127ZM104.829 26.2127H106.701V28.0851H104.829V26.2127ZM106.701 26.2127H108.574V28.0851H106.701V26.2127ZM106.701 24.3404H108.574V26.2127H106.701V24.3404ZM106.701 22.4681H108.574V24.3404H106.701V22.4681ZM106.701 20.5957H108.574V22.4681H106.701V20.5957ZM104.829 20.5957H106.701V22.4681H104.829V20.5957ZM104.829 22.4681H106.701V24.3404H104.829V22.4681ZM104.829 24.3404H106.701V26.2127H104.829V24.3404ZM112.313 22.4681H114.185V24.3404H112.313V22.4681ZM114.185 22.4681H116.058V24.3404H114.185V22.4681ZM116.058 22.4681H117.93V24.3404H116.058V22.4681ZM116.058 24.3404H117.93V26.2127H116.058V24.3404ZM116.058 26.2127H117.93V28.0851H116.058V26.2127ZM114.185 26.2127H116.058V28.0851H114.185V26.2127ZM112.313 26.2127H114.185V28.0851H112.313V26.2127ZM112.313 24.3404H114.185V26.2127H112.313V24.3404ZM114.185 24.3404H116.058V26.2127H114.185V24.3404Z" fill="#3121E1"/>
</svg>
